#!OML:ASF E:\VariousWalksJay\Project 1\Capture day 1\Session 1\Actor2.ASF
:FULLY-SPECIFIED
:DEGREES
965
root 9.5764 17.1729 23.4268 29.8618 -72.1591 -34.4602
lowerback -3.63998 -3.03147 2.97253
upperback -2.25602 -4.16864 -2.44893
thorax -0.680118 -2.15844 -4.29837
lowerneck -1.45234 -12.7235 -12.9614
upperneck 11.5684 -20.0448 19.5171
head 7.09027 -9.69174 6.575
rclavicle -1.86858e-014 -1.59028e-015
rhumerus 29.1992 50.5486 -11.8158
rradius 98.9866
rwrist -2.20734
rhand 22.8916 -1.20423
rfingers 7.12502
rthumb 47.2186 -23.7735
lclavicle -2.8625e-014 -2.22639e-014
lhumerus -34.6 -64.31 40.5022
lradius 67.6655
lwrist 19.5603
lhand 18.9426 -4.70448
lfingers 7.12502
lthumb 43.5488 19.3446
rfemur -24.1779 5.49651 29.9341
rtibia 53.07
rfoot 23.6534 12.444
rtoes 18.6481
lfemur -11.2247 20.4071 0.751294
ltibia 68.5282
lfoot 8.67474 -0.564624
ltoes -15.4525
966
root 9.6232 17.1234 23.4047 31.5822 -72.8703 -36.2525
lowerback -3.12945 -3.07126 2.65513
upperback -2.11528 -4.20064 -2.48818
thorax -0.802504 -2.1695 -4.13462
lowerneck -1.16362 -12.6357 -13.273
upperneck 11.7012 -19.9349 19.4248
head 7.08288 -9.67043 6.62879
rclavicle -1.86858e-014 -1.59028e-015
rhumerus 29.1992 50.5486 -11.8158
rradius 98.9866
rwrist -2.20734
rhand 22.8916 -1.20423
rfingers 7.12502
rthumb 47.2186 -23.7735
lclavicle -6.36111e-015 1.43125e-014
lhumerus -31.9986 -61.7578 36.7737
lradius 68.3488
lwrist 19.5678
lhand 20.9113 -4.15131
lfingers 7.12502
lthumb 45.3831 19.1957
rfemur -24.702 6.12629 30.082
rtibia 53.7291
rfoot 23.738 12.6495
rtoes 18.6629
lfemur -12.1701 20.1235 1.66246
ltibia 70.1795
lfoot 7.75642 0.176069
ltoes -14.0137
967
root 9.6654 17.0744 23.3872 33.3646 -73.6792 -38.1049
lowerback -2.68816 -3.07166 2.26493
upperback -2.00612 -4.18454 -2.54983
thorax -0.910974 -2.15654 -3.95607
lowerneck -0.940483 -12.5423 -13.5619
upperneck 11.8653 -19.809 19.2865
head 7.08648 -9.63699 6.66166
rclavicle -1.86858e-014 -1.59028e-015
rhumerus 29.1992 50.5486 -11.8158
rradius 98.9866
rwrist -2.20734
rhand 22.8916 -1.20423
rfingers 7.12502
rthumb 47.2186 -23.7735
lclavicle -4.81059e-014 -3.49861e-014
lhumerus -29.9282 -58.5012 33.8522
lradius 68.7765
lwrist 19.3371
lhand 22.1711 -3.70153
lfingers 7.12502
lthumb 46.552 19.1596
rfemur -25.1588 6.7948 30.1447
rtibia 54.3718
rfoot 23.705 12.8873
rtoes 18.8275
lfemur -12.8569 19.7086 2.45013
ltibia 71.3758
lfoot 6.72561 1.12275
ltoes -12.8203
968
root 9.70187 17.026 23.3745 35.3092 -74.5883 -40.1188
lowerback -2.34085 -3.02552 1.83251
upperback -1.92279 -4.11191 -2.64729
thorax -0.989126 -2.11553 -3.79588
lowerneck -0.810301 -12.4627 -13.7983
upperneck 12.0616 -19.698 19.1201
head 7.11091 -9.60338 6.66818
rclavicle -1.86858e-014 -1.59028e-015
rhumerus 29.1992 50.5486 -11.8158
rradius 98.9866
rwrist -2.20734
rhand 22.8916 -1.20423
rfingers 7.12502
rthumb 47.2186 -23.7735
lclavicle 3.26007e-014 2.70347e-014
lhumerus -28.3977 -54.663 31.7498
lradius 69.0075
lwrist 18.7989
lhand 22.4571 -3.4602
lfingers 7.12502
lthumb 46.8168 19.2863
rfemur -25.5488 7.48021 30.1355
rtibia 55.0035
rfoot 23.5725 13.1515
rtoes 19.1959
lfemur -13.2369 19.1418 3.1119
ltibia 72.044
lfoot 5.70379 2.11372
ltoes -11.8496
969
root 9.73223 16.978 23.3666 37.5064 -75.5942 -42.3886
lowerback -2.09251 -2.93655 1.37299
upperback -1.86926 -3.98747 -2.78198
thorax -1.04067 -2.04928 -3.66428
lowerneck -0.752662 -12.394 -13.9997
upperneck 12.2567 -19.6023 18.9734
head 7.14938 -9.57122 6.66826
rclavicle 3.29983e-014 3.18055e-015
rhumerus 20.9613 43.6712 -38.1099
rradius 96.4455
rwrist -0.787679
rhand 22.956 -3.11526
rfingers 7.12502
rthumb 47.2782 -25.6579
lclavicle 3.29983e-014 3.18055e-015
lhumerus -27.4226 -50.434 30.4653
lradius 69.1316
lwrist 17.9187
lhand 21.4757 -3.51068
lfingers 7.12502
lthumb 45.9072 19.6224
rfemur -25.8766 8.18131 30.0591
rtibia 55.6351
rfoot 23.365 13.3916
rtoes 19.8648
lfemur -13.2726 18.403 3.63439
ltibia 72.1317
lfoot 4.80647 3.0538
ltoes -11.1773
970
root 9.7565 16.9297 23.3636 40.1338 -76.6845 -45.0863
lowerback -1.94957 -2.79858 0.908094
upperback -1.8477 -3.80231 -2.95449
thorax -1.06584 -1.95377 -3.57406
lowerneck -0.775887 -12.3589 -14.1475
upperneck 12.4442 -19.5549 18.8549
head 7.20637 -9.55511 6.65634
rclavicle 1.27222e-014 -9.54166e-015
rhumerus 19.0661 42.5757 -44.1183
rradius 95.5119
rwrist -0.245709
rhand 18.2107 -2.76049
rfingers 7.12502
rthumb 42.8647 -27.0541
lclavicle 1.27222e-014 -9.54166e-015
lhumerus -26.9219 -46.0512 29.9205
lradius 69.2078
lwrist 16.6737
lhand 18.9657 -3.96116
lfingers 7.12502
lthumb 43.5703 20.0801
rfemur -26.1676 8.86268 29.9269
rtibia 56.2799
rfoot 23.14 13.6154
rtoes 20.8286
lfemur -12.9527 17.497 4.00965
ltibia 71.6193
lfoot 4.11603 3.89293
ltoes -10.8245
971
root 9.77463 16.8807 23.3653 43.4271 -77.8544 -48.4562
lowerback -1.9062 -2.63717 0.441922
upperback -1.87064 -3.58949 -3.14636
thorax -1.08247 -1.84577 -3.50733
lowerneck -0.84902 -12.3285 -14.3021
upperneck 12.6216 -19.5195 18.7881
head 7.27779 -9.54113 6.6571
rclavicle -1.90833e-014 -4.45278e-014
rhumerus 17.1001 41.7672 -50.3071
rradius 94.3483
rwrist 0.53531
rhand 11.6953 -2.17149
rfingers 7.12502
rthumb 36.7325 -28.3046
lclavicle -1.90833e-014 -4.45278e-014
lhumerus -26.9736 -41.7303 30.1193
lradius 69.2792
lwrist 15.1018
lhand 14.7631 -4.87281
lfingers 7.12502
lthumb 39.6286 20.4642
rfemur -26.4332 9.52075 29.7436
rtibia 56.9522
rfoot 22.9527 13.8297
rtoes 22.0392
lfemur -12.258 16.4416 4.23245
ltibia 70.5194
lfoot 3.65821 4.61545
ltoes -10.7484
972
root 9.78743 16.8302 23.3714 47.6532 -79.0749 -52.7599
lowerback -1.9527 -2.46051 -0.0208348
upperback -1.94724 -3.35929 -3.34988
thorax -1.10599 -1.73059 -3.45743
lowerneck -0.955096 -12.3037 -14.4879
upperneck 12.7878 -19.4989 18.7793
head 7.36406 -9.53244 6.67722
rclavicle -2.98177e-014 1.27222e-014
rhumerus 15.1001 41.1835 -56.4065
rradius 93.0621
rwrist 1.31054
rhand 3.75163 -1.52256
rfingers 7.12502
rthumb 29.1785 -29.2555
lclavicle -2.98177e-014 1.27222e-014
lhumerus -27.5179 -37.7181 30.9783
lradius 69.366
lwrist 13.355
lhand 8.86811 -6.11251
lfingers 7.12502
lthumb 34.052 20.6597
rfemur -26.705 10.1287 29.5024
rtibia 57.6686
rfoot 22.8605 14.0428
rtoes 23.4582
lfemur -11.2129 15.2412 4.28521
ltibia 68.8885
lfoot 3.39574 5.15128
ltoes -10.9502
973
root 9.79548 16.7769 23.3816 53.3286 -80.2895 -58.5194
lowerback -2.07793 -2.27696 -0.459062
upperback -2.07829 -3.12197 -3.54479
thorax -1.14406 -1.61317 -3.4143
lowerneck -1.09922 -12.2791 -14.6924
upperneck 12.9519 -19.4799 18.7965
head 7.46174 -9.52253 6.70606
rclavicle 3.57812e-015 -2.06736e-014
rhumerus 13.3197 40.7224 -61.9141
rradius 91.7371
rwrist 1.63526
rhand -5.16274 -0.933883
rfingers 7.12502
rthumb 20.637 -29.8568
lclavicle 3.57812e-015 -2.06736e-014
lhumerus -28.5054 -34.1756 32.4421
lradius 69.451
lwrist 11.6622
lhand 1.50973 -7.54858
lfingers 7.12502
lthumb 27.0356 20.5363
rfemur -27.0024 10.6699 29.2286
rtibia 58.4423
rfoot 22.9129 14.2862
rtoes 24.9829
lfemur -9.83012 13.9374 4.19756
ltibia 66.8386
lfoot 3.26174 5.45396
ltoes -11.701
974
root 9.7999 16.719 23.396 61.0284 -81.4286 -66.3097
lowerback -2.26991 -2.09132 -0.864661
upperback -2.26157 -2.88341 -3.72013
thorax -1.20115 -1.49618 -3.37033
lowerneck -1.27927 -12.2481 -14.91
upperneck 13.1072 -19.4472 18.8244
head 7.56326 -9.50445 6.74033
rclavicle 1.74931e-014 3.65764e-014
rhumerus 11.028 40.5322 -67.6978
rradius 90.3569
rwrist 2.15315
rhand -14.5011 -0.201823
rfingers 7.12502
rthumb 11.6459 -29.8582
lclavicle 1.74931e-014 3.65764e-014
lhumerus -29.8496 -31.2045 34.4354
lradius 69.5126
lwrist 10.3534
lhand -6.90623 -9.12082
lfingers 7.12502
lthumb 18.961 19.975
rfemur -27.3511 11.1279 28.9215
rtibia 59.285
rfoot 23.1465 14.587
rtoes 26.5049
lfemur -8.14035 12.6136 3.9697
ltibia 64.5318
lfoot 3.09254 5.54173
ltoes -13.0468
975
root 9.80103 16.6559 23.4142 71.4057 -82.3666 -76.785
lowerback -2.52945 -1.90664 -1.20633
upperback -2.48627 -2.64669 -3.86617
thorax -1.26672 -1.38112 -3.33302
lowerneck -1.49949 -12.2068 -15.1081
upperneck 13.2542 -19.3893 18.8336
head 7.66062 -9.47191 6.76692
rclavicle 4.77083e-015 1.11319e-014
rhumerus 8.58793 40.414 -73.2839
rradius 88.8837
rwrist 2.48944
rhand -23.6702 0.737395
rfingers 7.12502
rthumb 2.79588 -29.224
lclavicle 4.77083e-015 1.11319e-014
lhumerus -31.4567 -28.819 36.8873
lradius 69.5351
lwrist 9.70181
lhand -15.7631 -10.9776
lfingers 7.12502
lthumb 10.4287 18.7438
rfemur -27.7613 11.4867 28.6073
rtibia 60.1973
rfoot 23.5843 14.9702
rtoes 27.9223
lfemur -6.19935 11.3639 3.62905
ltibia 62.1463
lfoot 2.75332 5.46284
ltoes -14.9641
